{"title":"The November Man 2014 720p BRRip x264 Hun Eng","uid":12082637,"size":6657985315,"categoryP":"video","categoryS":"hd___movies","magnet":"?xt=urn:btih:a29bd0cd33af9e6c0cdeb1026d1cf65f7de56ca7&amp;dn=The+November+Man+2014+720p+BRRip+x264+Hun+Eng&amp;tr=udp%3A%2F%2Ftracker.openbittorrent.com%3A80&amp;tr=udp%3A%2F%2Fopen.demonii.com%3A1337&amp;tr=udp%3A%2F%2Ftracker.coppersurfer.tk%3A6969&amp;tr=udp%3A%2F%2Fexodus.desync.com%3A6969","seeders":0,"leechers":0,"uploader":"rinoceros","files":1,"time":1435822592,"description":"The November Man 2014 720p BRRip x264 Hun Eng\n\nGeneral\nUnique ID                                : 218295643626026080647279592846250443536 (0xA43A36309609AF4B9196B2AE643B8310)\nComplete name                            : F:The November Man 2014 720p BRRip x264 Hun EngThe November Man (2014) 720p.mkv\nFormat                                   : Matroska\nFormat version                           : Version 4 / Version 2\nFile size                                : 6.20 GiB\nDuration                                 : 1h 48mn\nOverall bit rate                         : 8 193 Kbps\nEncoded date                             : UTC 2015-07-01 17:09:54\nWriting application                      : mkvmerge v8.0.0 ('Til The Day That I Die') 64bit\nWriting library                          : libebml v1.3.1 + libmatroska v1.4.2\nDURATION                                 : 01:47:24.646000000\nNUMBER_OF_FRAMES                         : 877\nNUMBER_OF_BYTES                          : 25182\n_STATISTICS_WRITING_APP                  : mkvmerge v8.0.0 ('Til The Day That I Die') 64bit\n_STATISTICS_WRITING_DATE_UTC             : 2015-07-01 17:09:54\n_STATISTICS_TAGS                         : BPS DURATION NUMBER_OF_FRAMES NUMBER_OF_BYTES\nAttachment                               : Yes\n\nVideo\nID                                       : 1\nFormat                                   : AVC\nFormat/Info                              : Advanced Video Codec\nFormat profile                           : &lt;a class=&quot;__cf_email__&quot; href=&quot;/cdn-cgi/l/email-protection&quot; data-cfemail=&quot;6a22030d022a265e445b&quot;&gt;[email&amp;#160;protected]&lt;/a&gt;&lt;script data-cfhash='f9e31' type=&quot;text/javascript&quot;&gt;\n/* &lt;![CDATA[ */!function(){try{var t=&quot;currentScript&quot;in document?document.currentScript:function(){for(var t=document.getElementsByTagName(&quot;script&quot;),e=t.length;e--;)if(t[e].getAttribute(&quot;data-cfhash&quot;))return t[e]}();if(t&amp;&amp;t.previousSibling){var e,r,n,i,c=t.previousSibling,a=c.getAttribute(&quot;data-cfemail&quot;);if(a){for(e=&quot;&quot;,r=parseInt(a.substr(0,2),16),n=2;a.length-n;n+=2)i=parseInt(a.substr(n,2),16)^r,e+=String.fromCharCode(i);e=document.createTextNode(e),c.parentNode.replaceChild(e,c)}t.parentNode.removeChild(t);}}catch(u){}}()/* ]]&gt; */&lt;/script&gt;\nFormat settings, CABAC                   : Yes\nFormat settings, ReFrames                : 12 frames\nCodec ID                                 : V_MPEG4/ISO/AVC\nDuration                                 : 1h 48mn\nBit rate                                 : 6 942 Kbps\nWidth                                    : 1 280 pixels\nHeight                                   : 534 pixels\nDisplay aspect ratio                     : 2.40:1\nFrame rate mode                          : Constant\nFrame rate                               : 23.976 fps\nColor space                              : YUV\nChroma subsampling                       : 4:2:0\nBit depth                                : 8 bits\nScan type                                : Progressive\nBits/(Pixel*Frame)                       : 0.424\nStream size                              : 5.25 GiB (85%)\nTitle                                    : The November Man (2014) 720p\nWriting library                          : x264 core 142 r2431+42 c69a006 tMod [8-bit@all X86_64]\nEncoding settings                        : cabac=1 / ref=12 / deblock=1:-3:-3 / analyse=0x3:0x133 / me=tesa / subme=10 / psy=1 / fade_compensate=0.00 / psy_rd=1.00:0.05 / mixed_ref=1 / me_range=24 / chroma_me=1 / trellis=2 / 8x8dct=1 / cqm=0 / deadzone=21,11 / fast_pskip=0 / chroma_qp_offset=-3 / threads=6 / lookahead_threads=1 / sliced_threads=0 / nr=0 / decimate=1 / interlaced=0 / bluray_compat=0 / constrained_intra=0 / fgo=0 / bframes=12 / b_pyramid=2 / b_adapt=2 / b_bias=0 / direct=3 / weightb=1 / open_gop=0 / weightp=2 / keyint=250 / keyint_min=23 / scenecut=40 / intra_refresh=0 / rc_lookahead=60 / rc=crf / mbtree=0 / crf=16.5000 / qcomp=0.70 / qpmin=0:0:0 / qpmax=69:69:69 / qpstep=4 / vbv_maxrate=62500 / vbv_bufsize=78125 / crf_max=0.0 / nal_hrd=none / filler=0 / ip_ratio=1.30 / pb_ratio=1.20 / aq=1:0.80 / aq-sensitivity=10.00 / aq-factor=1.00:1.00:1.00 / aq2=0 / aq3=0\nDefault                                  : Yes\nForced                                   : No\nMatrix coefficients                      : BT.709\nDURATION                                 : 01:48:21.495000000\nNUMBER_OF_FRAMES                         : 155880\nNUMBER_OF_BYTES                          : 5771893535\n_STATISTICS_WRITING_APP                  : mkvmerge v8.0.0 ('Til The Day That I Die') 64bit\n_STATISTICS_WRITING_DATE_UTC             : 2015-07-01 17:09:54\n_STATISTICS_TAGS                         : BPS DURATION NUMBER_OF_FRAMES NUMBER_OF_BYTES\n\nAudio #1\nID                                       : 2\nFormat                                   : AC-3\nFormat/Info                              : Audio Coding 3\nMode extension                           : CM (complete main)\nFormat settings, Endianness              : Big\nCodec ID                                 : A_AC3\nDuration                                 : 1h 48mn\nBit rate mode                            : Constant\nBit rate                                 : 448 Kbps\nChannel(s)                               : 6 channels\nChannel positions                        : Front: L C R, Side: L R, LFE\nSampling rate                            : 48.0 KHz\nBit depth                                : 16 bits\nCompression mode                         : Lossy\nStream size                              : 347 MiB (5%)\nTitle                                    : DD 5.1\nLanguage                                 : Hungarian\nDefault                                  : Yes\nForced                                   : No\n\nAudio #2\nID                                       : 3\nFormat                                   : AC-3\nFormat/Info                              : Audio Coding 3\nMode extension                           : CM (complete main)\nFormat settings, Endianness              : Big\nCodec ID                                 : A_AC3\nDuration                                 : 1h 48mn\nBit rate mode                            : Constant\nBit rate                                 : 640 Kbps\nChannel(s)                               : 6 channels\nChannel positions                        : Front: L C R, Side: L R, LFE\nSampling rate                            : 48.0 KHz\nBit depth                                : 16 bits\nCompression mode                         : Lossy\nStream size                              : 496 MiB (8%)\nTitle                                    : DD 5.1\nLanguage                                 : English\nDefault                                  : No\nForced                                   : No\n\nText #1\nID                                       : 4\nFormat                                   : UTF-8\nCodec ID                                 : S_TEXT/UTF8\nCodec ID/Info                            : UTF-8 Plain Text\nTitle                                    : forced\nLanguage                                 : Hungarian\nDefault                                  : Yes\nForced                                   : No\n\nText #2\nID                                       : 5\nFormat                                   : UTF-8\nCodec ID                                 : S_TEXT/UTF8\nCodec ID/Info                            : UTF-8 Plain Text\nTitle                                    : full\nLanguage                                 : Hungarian\nDefault                                  : No\nForced                                   : No\n\nText #3\nID                                       : 6\nFormat                                   : UTF-8\nCodec ID                                 : S_TEXT/UTF8\nCodec ID/Info                            : UTF-8 Plain Text\nTitle                                    : full\nLanguage                                 : English\nDefault                                  : No\nForced                                   : No\n\nText #4\nID                                       : 7\nFormat                                   : UTF-8\nCodec ID                                 : S_TEXT/UTF8\nCodec ID/Info                            : UTF-8 Plain Text\nTitle                                    : full SDH\nLanguage                                 : English\nDefault                                  : No\nForced                                   : No\n &lt;a href=&quot;\nhttp://www.port.hu/november_man_the_november_man/pls/fi/films.film_page?i_topic_id=2&amp;i_film_id=152635&amp;i_city_id=-1&amp;i_county_id=-1&quot; rel=&quot;nofollow&quot; target=&quot;_NEW&quot;&gt;\nhttp://www.port.hu/november_man_the_november_man/pls/fi/films.film_page?i_topic_id=2&amp;i_film_id=152635&amp;i_city_id=-1&amp;i_county_id=-1&lt;/a&gt;","torrent":{"xt":"urn:btih:a29bd0cd33af9e6c0cdeb1026d1cf65f7de56ca7","amp;dn":"The+November+Man+2014+720p+BRRip+x264+Hun+Eng","amp;tr":["udp%3A%2F%2Ftracker.openbittorrent.com%3A80","udp%3A%2F%2Fopen.demonii.com%3A1337","udp%3A%2F%2Ftracker.coppersurfer.tk%3A6969","udp%3A%2F%2Fexodus.desync.com%3A6969"],"infoHash":"a29bd0cd33af9e6c0cdeb1026d1cf65f7de56ca7","infoHashBuffer":{"type":"Buffer","data":[162,155,208,205,51,175,158,108,12,222,177,2,109,28,246,95,125,229,108,167]},"announce":[],"urlList":[]}}